<svg width="838pt" height="838pt" viewBox="0 0 838 838" xmlns="http://www.w3.org/2000/svg"><path fill="#eb7077" stroke="#eb7077" stroke-width=".094" d="M207.6 217.6c3-5.1 6.9-10 12.5-12.4 2.3-.4 4.6-.2 6.9-.2h113.2c-3.3 2.8-6.5 5.7-8.7 9.5-5.8 9.5-9.7 20.1-13.3 30.7-10.2 32-17.3 64.9-24.2 97.8-3.1 14.9-6.1 29.9-8.9 44.8-8.6 48.8-17.5 97.5-28.6 145.8-5.3 22.3-10.7 44.6-18.9 66.1-3.8 8.9-7.5 18.4-14.8 25-1.7 1.5-3.4 3.4-5.8 3.1H117c-6.8-.2-13.5.4-20.3-.3 4.5-3.5 8.5-7.7 11.1-12.7 7.5-14.3 12.2-29.8 16.7-45.2 7-24.8 12.6-49.9 17.9-75 3.3-16.5 7.2-32.9 9.6-49.5 2.7-18.5 6.8-36.8 10.1-55.2 5.2-27.1 10.7-54.2 16.8-81.1 4.9-21 9.9-41.9 16.6-62.4 3.3-9.9 6.9-19.7 12.1-28.8z"/><path fill="#f6a2ad" stroke="#f6a2ad" stroke-width=".094" d="M340.2 205c2.9 0 5.8-.1 8.7 0 6.4 3.4 11.8 8.8 14.8 15.5 4 7.6 7.3 15.6 10.3 23.8 10 30.9 16.8 62.7 23.6 94.4 5.8 28.4 11.3 56.9 16.5 85.5.4 1.5-.1 3.6 1.9 4-7.2 37.6-14.3 75.3-23.3 112.6-4.9 20.1-10.1 40.1-17.5 59.5-4 9.7-8.1 20.3-16.6 27.2-5.4 1.2-9.3-2.9-12.6-6.6-5.7-7.3-9.2-15.9-12.6-24.5-11.3-30.8-18.2-62.9-25.2-94.9-5.3-24.9-10-50-14.9-75-2.2-12.7-5.2-25.2-6.9-37.9-.3-.2-1-.6-1.3-.8 2.8-14.9 5.8-29.9 8.9-44.8 6.9-32.9 14-65.8 24.2-97.8 3.6-10.6 7.5-21.2 13.3-30.7 2.2-3.8 5.4-6.7 8.7-9.5z"/><path fill="#eb7077" stroke="#eb7077" stroke-width=".094" d="M465.3 222.3c3.6-6.9 8-14.6 15.8-17.2 39.7-.2 79.4-.1 119.1-.1-3.7 3.7-7.6 7.4-10.1 12.1-7.7 13.8-12.2 29.1-16.8 44.2-11.8 41.6-20.1 84.1-28 126.6-7.3 41.9-15.1 83.8-24 125.5-4.6 21-9.4 41.9-15.5 62.6-3.9 12.8-8 25.7-14.4 37.6-3.1 5.4-6.7 11.3-12.6 14.1-37.9.3-75.9 0-113.8.1-2.1 0-4.3 0-6.4-.3 8.5-6.9 12.6-17.5 16.6-27.2 7.4-19.4 12.6-39.4 17.5-59.5 9-37.3 16.1-75 23.3-112.6 8.7-48.5 17.8-97 29.4-144.9 5.4-20.7 10.6-41.7 19.9-61z"/><path fill="#f6a2ad" stroke="#f6a2ad" stroke-width=".094" d="M600.2 205c3.2 0 6.5-.1 9.7 0 5.2 2.7 8.9 7.3 12.2 12 5.4 8.6 8.8 18.3 12.3 27.8 8.3 25.5 14.5 51.7 20.2 77.9 7.6 35.3 14.2 70.8 20.7 106.3 1.6 8.5 3.2 17.1 4.2 25.7l1.5 1.5c-3.6 5-5 11-7 16.7-6.3 20.3-10.4 41.3-13.9 62.2-2.7 16.4-6.4 32.7-11.5 48.5-3.8 11.7-8.4 23.3-16 33.1-3.6 4.7-8.5 8.3-13.9 10.7-8.3.9-13.2-7.1-17.2-13-8.3-14.5-12.8-30.7-17.6-46.5-15.8-58.5-26.1-118.4-37.2-177.9-.1-.9-.6-1.7-1.4-2.1 7.9-42.5 16.2-85 28-126.6 4.6-15.1 9.1-30.4 16.8-44.2 2.5-4.7 6.4-8.4 10.1-12.1zM3.1 432.5c2.6-.2 5.2-.6 7.9-.6h109c4.6.6 9.4.2 13.8 2.2 6.4 2.6 12.1 7 16.3 12.5.5-.3 1.4-1.1 1.9-1.5-2.4 16.6-6.3 33-9.6 49.5-5.3 25.1-10.9 50.2-17.9 75-4.5 15.4-9.2 30.9-16.7 45.2-2.6 5-6.6 9.2-11.1 12.7-1.7.3-3-.9-4.4-1.8-4.7-3-7.4-8.2-10.3-12.9-13.7-31.2-15.2-65.7-23.7-98.3C54 498.2 48.7 482 40.9 467c-4.8-9-10.7-17.6-18.4-24.5-5.7-4.6-12.3-8.3-19.4-10z"/><path fill="#eb7077" stroke="#eb7077" stroke-width=".094" d="M689.8 442.9c6.3-7.1 15.7-11.6 25.2-11.2h82c11.4.2 22.9-.4 34.3.3-3.4 2.3-7.5 3.2-11.1 5.1-12.5 5.7-23.2 15.2-30 27.1-10.9 19-14.7 40.8-17.9 62.2-3.2 21-3.1 42.7-9.9 63.1-4.6 14.3-11.6 28.7-23.7 38.1-37.6.4-75.2.1-112.7.2-2.5 0-4.9.1-7.3-.4 5.4-2.4 10.3-6 13.9-10.7 7.6-9.8 12.2-21.4 16-33.1 5.1-15.8 8.8-32.1 11.5-48.5 3.5-20.9 7.6-41.9 13.9-62.2 2-5.7 3.4-11.7 7-16.7 3-4.4 5-9.5 8.8-13.3z"/></svg>