<svg xmlns="http://www.w3.org/2000/svg" viewBox="0 0 512 512"><circle cx="256" cy="256" r="256" fill="#35ccff"/><path d="M512 256c0-12.301-.887-24.393-2.564-36.23L420.667 131 91.333 381l128.436 128.436A258.15 258.15 0 0 0 256 512c141.385 0 256-114.615 256-256z" fill="#00baff"/><path fill="#fff" d="M91.33 131h329.33v250H91.33z"/><g fill="#e0e0e0"><path d="M256 131h164.67v250H256z"/><path d="M91.33 131h329.33v32.17H91.33z"/></g><path fill="silver" d="M256 131h164.67v32.17H256z"/><g fill="#ff6838"><circle cx="111.17" cy="147.08" r="8.917"/><circle cx="137.92" cy="147.08" r="8.917"/><circle cx="164.67" cy="147.08" r="8.917"/></g><path d="M398.935 288.631l12.22-12.22a104.153 104.153 0 0 0-25.685-25.685l-12.22 12.22a86.13 86.13 0 0 0-28.888-11.972v-17.289a104.216 104.216 0 0 0-18.162-1.589c-6.196 0-12.265.546-18.162 1.589v17.289a86.137 86.137 0 0 0-28.888 11.971l-12.22-12.22a104.153 104.153 0 0 0-25.685 25.685l12.22 12.22a86.13 86.13 0 0 0-11.972 28.888h-17.289a104.216 104.216 0 0 0-1.589 18.162c0 6.196.546 12.265 1.589 18.162h17.289a86.118 86.118 0 0 0 11.972 28.888l-12.22 12.22a104.153 104.153 0 0 0 25.685 25.685l12.22-12.22a86.13 86.13 0 0 0 28.888 11.972v17.289a104.216 104.216 0 0 0 18.162 1.589c6.196 0 12.265-.546 18.162-1.589v-17.289a86.118 86.118 0 0 0 28.888-11.972l12.22 12.22a104.153 104.153 0 0 0 25.685-25.685l-12.22-12.22a86.139 86.139 0 0 0 11.972-28.888h17.289a104.216 104.216 0 0 0 1.589-18.162c0-6.196-.546-12.265-1.589-18.162h-17.289a86.142 86.142 0 0 0-11.972-28.887zM326.2 373.937c-21.128 0-38.256-17.128-38.256-38.256s17.128-38.256 38.256-38.256 38.256 17.128 38.256 38.256-17.129 38.256-38.256 38.256z" fill="#005c83"/><path d="M428.195 353.844a104.218 104.218 0 0 0 1.589-18.163c0-6.196-.546-12.265-1.589-18.162h-17.289a86.128 86.128 0 0 0-11.971-28.888l12.22-12.22a104.153 104.153 0 0 0-25.685-25.685l-12.22 12.22a86.11 86.11 0 0 0-28.888-11.972v-17.289a104.216 104.216 0 0 0-18.162-1.589c-.402 0-.799.022-1.199.026v65.333c.399-.012.797-.03 1.199-.03 21.128 0 38.256 17.127 38.256 38.255s-17.127 38.256-38.256 38.256c-.402 0-.8-.018-1.199-.03v65.333c.401.004.798.026 1.199.026 6.197 0 12.265-.546 18.162-1.589v-17.289a86.118 86.118 0 0 0 28.888-11.972l12.22 12.22a104.14 104.14 0 0 0 25.685-25.686l-12.22-12.22a86.116 86.116 0 0 0 11.971-28.888h17.289v.003z" fill="#00263f"/><path d="M109.551 234.313v-54.465h23.244c2.608 0 4.999.537 7.173 1.61 2.173 1.074 4.039 2.481 5.6 4.22a20.155 20.155 0 0 1 3.682 5.906c.895 2.2 1.343 4.424 1.343 6.674 0 2.404-.422 4.706-1.266 6.904a19.726 19.726 0 0 1-3.528 5.907c-1.509 1.739-3.337 3.12-5.485 4.142-2.148 1.024-4.526 1.535-7.134 1.535h-11.046v17.566l-12.583.001zm12.581-28.536h10.279c1.482 0 2.761-.639 3.835-1.917s1.611-3.146 1.611-5.6c0-1.278-.167-2.378-.499-3.298-.333-.921-.78-1.688-1.342-2.302-.563-.613-1.202-1.061-1.918-1.342a5.847 5.847 0 0 0-2.148-.422h-9.819l.001 14.881zm81.851-25.928v54.465h-12.581V211.99h-21.709v22.323h-12.581v-54.465h12.581v21.096h21.709v-21.096h12.581v.001zm10.433 54.464v-54.465h23.244c2.608 0 4.999.537 7.173 1.61 2.173 1.074 4.039 2.481 5.6 4.22a20.155 20.155 0 0 1 3.682 5.906c.895 2.2 1.343 4.424 1.343 6.674 0 2.404-.422 4.706-1.266 6.904a19.726 19.726 0 0 1-3.528 5.907c-1.509 1.739-3.337 3.12-5.485 4.142-2.148 1.024-4.526 1.535-7.134 1.535h-11.046v17.566l-12.583.001zm12.581-28.536h10.279c1.482 0 2.761-.639 3.835-1.917s1.611-3.146 1.611-5.6c0-1.278-.167-2.378-.499-3.298-.333-.921-.78-1.688-1.342-2.302-.563-.613-1.202-1.061-1.918-1.342a5.847 5.847 0 0 0-2.148-.422h-9.819l.001 14.881z" fill="#005c83"/></svg>