<svg xmlns="http://www.w3.org/2000/svg" xmlns:xlink="http://www.w3.org/1999/xlink" width="656.289" height="131.668" viewBox="0 0 615.271 123.438"><defs><linearGradient id="a"><stop offset="0" stop-color="#9f083b"/><stop offset="1" stop-color="#d13a6d"/></linearGradient><linearGradient xlink:href="#a" id="b" x1="332.845" y1="768.004" x2="332.845" y2="669.514" gradientUnits="userSpaceOnUse" gradientTransform="translate(0 -106)"/></defs><path d="M307.902 116.052c-10.166-1.083-19.532-4.652-27.284-10.397-4.239-3.142-9.885-9.157-12.67-13.498-7.918-12.344-10.377-30.298-6.332-46.243 4.123-16.253 16.739-29.72 33.244-35.485 6.54-2.284 11.417-3.047 19.616-3.069 10.269-.026 17.285 1.573 26.555 6.053 5.39 2.605 12.419 7.252 12.419 8.21 0 .878-14.069 15.044-14.94 15.044-.334 0-1.89-.871-3.46-1.937-6.338-4.304-12.898-6.502-19.4-6.5-14.882.005-26.464 9.259-30.3 24.21-1.32 5.144-1.32 13.545.002 18.74 3.078 12.097 12.145 21.108 23.587 23.443 9.488 1.937 17.455.085 26.297-6.11l3.777-2.647 7.453 7.443c4.1 4.093 7.453 7.71 7.453 8.037 0 1.757-13.668 9.669-20.77 12.023-7.624 2.528-17.174 3.542-25.247 2.683zm54.584-2.296c-.467-.297-.564-11.056-.47-52.231l.12-51.858h23.713c27.145 0 27.526.045 36.111 4.276 7.827 3.857 13.57 10.739 15.83 18.968 1.153 4.201 1.172 14.073.034 18.278-1.374 5.08-3.542 8.887-7.13 12.52-3.564 3.607-6.366 5.194-11.797 6.682-2.07.567-3.23 1.126-3.23 1.554 0 .369 5.773 9.798 12.829 20.955 7.056 11.156 12.696 20.5 12.533 20.765-.463.748-27.558.646-28.498-.108-.402-.322-6.265-9.831-13.028-21.13-6.763-11.299-12.496-20.543-12.74-20.543-.273 0-.444 7.95-.444 20.567 0 15.37-.143 20.709-.564 21.13-.65.65-22.265.812-23.268.175zm41.546-58.829c3.813-.664 6.98-2.726 8.576-5.582 1.04-1.864 1.18-2.667 1.18-6.808 0-4.215-.137-4.976-1.341-7.428-1.57-3.196-4.334-5.448-8.285-6.748-2.058-.678-4.11-.85-10.096-.85h-7.513l-.124 13.969-.124 13.97h7.364c4.05 0 8.714-.236 10.363-.523zm46.65 58.554c-.414-.5-.51-9.844-.384-37.682.164-36.55.18-37.07 1.217-41.01.577-2.195 1.915-5.788 2.972-7.983 1.587-3.295 2.669-4.733 6.203-8.245 6.25-6.213 12.586-9.257 22.58-10.848 6.412-1.022 17.728-.66 23.021.735 4.963 1.308 11.572 4.53 14.975 7.302l2.744 2.235 1.236-.979c8.83-6.995 17.635-9.923 29.824-9.92 14.097.006 24.533 3.658 32.196 11.268 5.652 5.613 8.641 11.807 9.864 20.437.367 2.593.488 14.728.393 39.432l-.137 35.687-11.035.132c-6.069.073-11.498.019-12.065-.12l-1.03-.252-.178-33.454c-.16-30.187-.26-33.774-1.015-36.74-1.86-7.302-5.136-11.944-10.056-14.25-2.374-1.114-3.178-1.241-7.586-1.2-5.45.05-7.798.69-10.89 2.965-3.757 2.762-6.027 7.185-6.944 13.53-.265 1.831-.464 17.156-.47 36.117-.007 29.595-.084 32.965-.751 33.221-1.487.57-22.516.318-23.111-.278-.427-.427-.564-8.25-.564-32.338 0-35.483-.128-37.341-2.999-43.426-2.089-4.43-3.978-6.462-7.714-8.301-2.903-1.43-3.444-1.535-7.825-1.522-5.904.018-8.499 1.042-11.987 4.73-2.663 2.816-3.764 4.983-5.275 10.385-.998 3.567-1.026 4.443-1.185 36.98-.123 25.17-.3 33.415-.723 33.684-.309.197-5.553.36-11.655.364-8.993.006-11.2-.118-11.646-.656z" fill="#4b5557"/><path d="M131.12 671.13c-.418-1.088.021-102.29.447-102.954.512-.798 249.657-.87 249.657-.072 0 .283-1.711 2.344-3.803 4.578-13.086 13.98-20.125 34.297-18.322 52.886 1.564 16.127 7.836 30.526 18.061 41.46 1.977 2.114 3.595 4.06 3.595 4.324 0 .326-40.049.48-124.683.48-110.17 0-124.714-.082-124.952-.702zm190.236-23.515c6.015-1.606 11.762-5.528 15.008-10.24 2.746-3.987 2.5-4.17-5.377-3.975l-6.563.163-1.426 1.73c-2.753 3.341-10.057 4.786-14.008 2.77-2.137-1.09-5.277-4.412-6.133-6.488-1.25-3.033-1.913-2.919 17.66-3.055l17.743-.123.149-1.814c.243-2.962-1.23-9.204-3.063-12.977-4.256-8.758-13.424-13.689-24.118-12.97-11.265.756-19.446 6.798-22.333 16.492-1.24 4.165-1.12 11.728.249 15.677 2.76 7.962 8.929 13.386 17.42 15.315 3.686.837 10.658.6 14.792-.505zM302.95 618.55c.145-.897.927-2.594 1.738-3.772 3.857-5.606 10.879-6.53 15.718-2.07 1.999 1.842 4.3 6.14 3.758 7.017-.168.272-4.538.455-10.88.455h-10.599zm-127.253 28.86c6.159-1.902 9.762-6.788 9.818-13.31.056-6.62-2.3-9.348-10.993-12.723-7.44-2.89-8.912-3.658-10.41-5.438-2.178-2.59-1.328-4.968 2.268-6.34 2.758-1.054 4.99-.632 6.566 1.242.662.786 1.203 1.624 1.203 1.862 0 .626 10.669.556 11.057-.073.711-1.15-.926-4.902-3.079-7.055-3.35-3.35-6.43-4.36-13.378-4.389-5.257-.021-5.834.069-8.594 1.343-5.497 2.539-8.346 7.033-8.224 12.975.12 5.882 2.453 8.352 11.505 12.18 7.33 3.102 8.943 4.107 9.765 6.092.788 1.904.302 3.505-1.444 4.748-3.209 2.285-7.837 1.45-9.131-1.646-.357-.854-1.027-1.65-1.49-1.768-1.456-.374-7.008-.448-8.772-.117-1.509.283-1.693.475-1.693 1.76 0 4.441 4.847 9.142 11.269 10.929 3.431.955 10.22.82 13.757-.272zm43.02.22c6.05-1.426 10.273-4.85 12.341-10.007 1.034-2.577 1.064-3.114 1.073-19.086l.009-16.435h-13.618l-.234 15.752c-.26 17.44-.257 17.42-3.41 19.067-1.904.995-5.349.984-7.298-.024-3.02-1.561-3.12-2.129-3.38-19.3l-.234-15.495-6.68-.13c-6.612-.13-6.68-.12-6.928.939-.138.588-.082 8.36.124 17.27.344 14.905.452 16.37 1.344 18.336 2.95 6.502 9.328 9.76 19.183 9.803 2.624.011 6.025-.293 7.707-.69zm63.797-5.663l.132-5.213-2.147-.82c-3.511-1.342-3.553-1.504-3.409-13.22l.127-10.282 2.817-.234 2.818-.235v-9.86l-1.879-.126c-4.192-.28-3.946.101-4.094-6.337l-.132-5.746-6.679-.13c-7.831-.153-7.108-.842-7.291 6.938l-.116 4.93-2.348.235-2.348.235v9.86l2.348.236 2.348.234.305 3.992c.168 2.195.327 8.595.352 14.223.042 9.147.144 10.42.959 12.019 1.807 3.543 5.104 4.738 12.705 4.607l5.4-.093.132-5.213zm-30.531-17.678l-.122-22.656h-13.148l-.122 22.069c-.068 12.138-.021 22.333.102 22.656.166.431 1.977.587 6.818.587h6.594zm-3.49-29.166c4.849-2.026 5.968-8.164 2.22-12.18-1.678-1.8-1.974-1.93-4.781-2.088-3.469-.196-5.427.724-6.987 3.282-1.343 2.204-1.28 6.276.13 8.387 1.954 2.925 5.979 4.036 9.418 2.599z" fill="url(#b)" transform="translate(-113.235 -557.967)"/></svg>