<svg width="593.834" height="83.445" xmlns="http://www.w3.org/2000/svg" xmlns:xlink="http://www.w3.org/1999/xlink"><defs><linearGradient id="b" x1=".725" y1=".315" x2=".338" y2=".633"><stop stop-color="#0DB14B" offset="0"/><stop stop-color="#0DB14B" offset=".005"/><stop stop-color="#B4D670" offset=".378"/><stop stop-color="#AED16B" offset=".446"/><stop stop-color="#A1C85E" offset=".518"/><stop stop-color="#8DBA4B" offset=".592"/><stop stop-color="#79AD3B" offset=".649"/><stop stop-color="#76A93C" offset=".728"/><stop stop-color="#6BA03F" offset=".818"/><stop stop-color="#599344" offset=".912"/><stop stop-color="#3F8348" offset="1"/></linearGradient><linearGradient id="e" x1=".32" y1=".709" x2=".656" y2=".319"><stop stop-color="#63923F" offset="0"/><stop stop-color="#89B33C" offset=".163"/><stop stop-color="#3A8040" offset=".342"/><stop stop-color="#D3DF9E" offset=".554"/><stop stop-color="#CDDA97" offset=".574"/><stop stop-color="#BBCC82" offset=".608"/><stop stop-color="#9EB861" offset=".653"/><stop stop-color="#7EA441" offset=".698"/><stop stop-color="#417F43" offset="1"/></linearGradient><linearGradient id="h" x1="-.101" y1=".501" x2="4.076" y2=".501"><stop stop-color="#0DB14B" offset="0"/><stop stop-color="#0DB14B" offset=".005"/><stop stop-color="#B4D670" offset=".378"/><stop stop-color="#AED16B" offset=".446"/><stop stop-color="#A1C85E" offset=".518"/><stop stop-color="#8DBA4B" offset=".592"/><stop stop-color="#79AD3B" offset=".649"/><stop stop-color="#75A93B" offset=".713"/><stop stop-color="#699F3E" offset=".785"/><stop stop-color="#559241" offset=".861"/><stop stop-color="#348144" offset=".94"/><stop stop-color="#007345" offset="1"/></linearGradient><linearGradient id="j" x1=".196" y1=".238" x2="2.359" y2="2.057"><stop stop-color="#0DB14B" offset="0"/><stop stop-color="#0DB14B" offset=".005"/><stop stop-color="#B4D670" offset=".378"/><stop stop-color="#AED16B" offset=".446"/><stop stop-color="#A1C85E" offset=".518"/><stop stop-color="#8DBA4B" offset=".592"/><stop stop-color="#79AD3B" offset=".649"/><stop stop-color="#75A93B" offset=".713"/><stop stop-color="#699F3E" offset=".785"/><stop stop-color="#559241" offset=".861"/><stop stop-color="#348144" offset=".94"/><stop stop-color="#007345" offset="1"/></linearGradient><linearGradient id="l" x1="-.029" y1=".499" x2="1.025" y2=".499"><stop stop-color="#84B93A" offset="0"/><stop stop-color="#B4D670" offset=".378"/><stop stop-color="#AED16B" offset=".446"/><stop stop-color="#A1C85E" offset=".518"/><stop stop-color="#8DBA4B" offset=".592"/><stop stop-color="#79AD3B" offset=".649"/><stop stop-color="#76A93C" offset=".73"/><stop stop-color="#6BA140" offset=".822"/><stop stop-color="#579445" offset=".918"/><stop stop-color="#3E8749" offset="1"/></linearGradient><linearGradient id="o" x1="-.057" y1=".499" x2="1.052" y2=".499"><stop stop-color="#0DB14B" offset="0"/><stop stop-color="#0DB14B" offset=".005"/><stop stop-color="#B4D670" offset=".378"/><stop stop-color="#AED16B" offset=".446"/><stop stop-color="#A1C85E" offset=".518"/><stop stop-color="#8DBA4B" offset=".592"/><stop stop-color="#79AD3B" offset=".649"/><stop stop-color="#75A93B" offset=".713"/><stop stop-color="#699F3E" offset=".785"/><stop stop-color="#559241" offset=".861"/><stop stop-color="#348144" offset=".94"/><stop stop-color="#007345" offset="1"/></linearGradient><linearGradient id="q" x1=".204" y1=".251" x2=".773" y2=".73"><stop stop-color="#0DB14B" offset="0"/><stop stop-color="#0DB14B" offset=".005"/><stop stop-color="#B4D670" offset=".378"/><stop stop-color="#AED16B" offset=".446"/><stop stop-color="#A1C85E" offset=".518"/><stop stop-color="#8DBA4B" offset=".592"/><stop stop-color="#79AD3B" offset=".649"/><stop stop-color="#75A93B" offset=".713"/><stop stop-color="#699F3E" offset=".785"/><stop stop-color="#559241" offset=".861"/><stop stop-color="#348144" offset=".94"/><stop stop-color="#007345" offset="1"/></linearGradient><linearGradient id="s" x1="-.246" y1=".501" x2="4.962" y2=".501"><stop stop-color="#0DB14B" offset="0"/><stop stop-color="#0DB14B" offset=".005"/><stop stop-color="#B4D670" offset=".378"/><stop stop-color="#AED16B" offset=".446"/><stop stop-color="#A1C85E" offset=".518"/><stop stop-color="#8DBA4B" offset=".592"/><stop stop-color="#79AD3B" offset=".649"/><stop stop-color="#75A93B" offset=".713"/><stop stop-color="#699F3E" offset=".785"/><stop stop-color="#559241" offset=".861"/><stop stop-color="#348144" offset=".94"/><stop stop-color="#007345" offset="1"/></linearGradient><linearGradient id="u" x1=".118" y1=".177" x2="2.808" y2="2.439"><stop stop-color="#0DB14B" offset="0"/><stop stop-color="#0DB14B" offset=".005"/><stop stop-color="#B4D670" offset=".378"/><stop stop-color="#AED16B" offset=".446"/><stop stop-color="#A1C85E" offset=".518"/><stop stop-color="#8DBA4B" offset=".592"/><stop stop-color="#79AD3B" offset=".649"/><stop stop-color="#75A93B" offset=".713"/><stop stop-color="#699F3E" offset=".785"/><stop stop-color="#559241" offset=".861"/><stop stop-color="#348144" offset=".94"/><stop stop-color="#007345" offset="1"/></linearGradient></defs><path fill="none" d="M-1-1h582v402H-1z"/><path fill="#d1d3d4" d="M525.707 29.632h11.604c2.075 0 3.779-1.736 3.779-3.81V14.248a3.783 3.783 0 0 0-3.779-3.777h-11.604a3.783 3.783 0 0 0-3.779 3.777V25.82c0 2.075 1.702 3.811 3.779 3.811m52.665-19.267H554.56c-2.09 0-3.793 1.72-3.793 3.809v11.989c0 1.541.991 3.17 3.793 3.17h14.76c1.32.03 2.46 1.201 2.46 2.578v26.837a2.615 2.615 0 0 1-2.609 2.622h-25.265c-1.395 0-2.58-1.154-2.594-2.576V43.442c0-2.075-1.718-3.766-3.81-3.766h-11.53c-2.103 0-3.793 1.69-3.793 3.766v24.555c0 5.75 4.682 10.448 10.462 10.448h45.73c5.752 0 10.463-4.699 10.463-10.448V20.859c.002-5.781-4.71-10.494-10.462-10.494"/><defs><path id="a" d="M59.314 68.933h6.466c1.159 0 2.12-.96 2.12-2.128v-6.466a2.13 2.13 0 0 0-2.12-2.119h-6.466a2.125 2.125 0 0 0-2.127 2.119v6.466a2.133 2.133 0 0 0 2.127 2.128m-1.25-8.594c0-.687.563-1.25 1.25-1.25h6.466c.679 0 1.234.563 1.234 1.25v6.466c0 .68-.555 1.25-1.234 1.25h-6.466c-.687 0-1.25-.57-1.25-1.25v-6.466z"/></defs><clipPath transform="translate(414.17 -99.138) scale(1.78998)" id="c"><use height="100%" width="100%" xlink:href="#a"/></clipPath><path fill="url(#b)" clip-path="url(#c)" d="M524.26 33.658l-17.13-20.855L527.984-4.33l17.132 20.856z"/><defs><path id="d" d="M88.729 58.178H75.425a2.119 2.119 0 0 0-2.119 2.12v6.689c0 .87.554 1.764 2.119 1.764h8.246c.737.033 1.374.679 1.374 1.465v14.977c0 .819-.662 1.466-1.465 1.466H69.474a1.463 1.463 0 0 1-1.466-1.434V76.65a2.115 2.115 0 0 0-2.111-2.111h-6.449a2.122 2.122 0 0 0-2.119 2.111v13.71c0 3.22 2.624 5.836 5.844 5.836H88.73a5.833 5.833 0 0 0 5.828-5.836V64.025c0-3.222-2.607-5.847-5.829-5.847m4.959 32.182c0 2.723-2.235 4.959-4.959 4.959H63.172c-2.723 0-4.959-2.236-4.959-4.959V76.65a1.25 1.25 0 0 1 1.234-1.242h6.449c.679 0 1.242.579 1.242 1.242v8.593a2.333 2.333 0 0 0 2.335 2.293H83.58a2.339 2.339 0 0 0 2.334-2.343V70.216c0-1.258-1.01-2.302-2.243-2.335h-8.246c-.679 0-1.242-.198-1.242-.894v-6.689c0-.687.563-1.233 1.242-1.233h13.304a4.968 4.968 0 0 1 4.959 4.96V90.36z"/></defs><clipPath transform="translate(414.17 -99.138) scale(1.78998)" id="f"><use height="100%" width="100%" xlink:href="#d"/></clipPath><path fill="url(#e)" clip-path="url(#f)" d="M545.282-27.968l71.81 62.068-62.162 71.92-71.809-62.068z"/><defs><path id="g" d="M59.314 68.055h6.466a1.25 1.25 0 0 0 1.234-1.25v-6.466c0-.687-.555-1.25-1.234-1.25h-6.466c-.687 0-1.25.563-1.25 1.25v6.466c0 .68.563 1.25 1.25 1.25m-.372-7.716c0-.198.174-.372.372-.372h6.466c.199 0 .365.174.365.372v6.466c0 .199-.166.381-.365.381h-6.466a.39.39 0 0 1-.372-.381v-6.466z"/></defs><clipPath transform="translate(414.17 -99.138) scale(1.78998)" id="i"><use height="100%" width="100%" xlink:href="#g"/></clipPath><path transform="translate(414.17 -99.138) scale(1.78998)" fill="url(#h)" clip-path="url(#i)" d="M58.084 59.089h8.93v8.964h-8.93z"/><path fill="url(#j)" clip-path="url(#i)" d="M542.03 13.279l-14.542 17.293-17.29-14.54L524.74-1.26z"/><defs><path id="k" d="M88.729 59.065H75.425c-.679 0-1.242.547-1.242 1.233v6.689c0 .695.563.894 1.242.894h8.246c1.233.033 2.243 1.077 2.243 2.335v14.977c0 1.3-1.051 2.343-2.334 2.343H69.474a2.333 2.333 0 0 1-2.335-2.293V76.65c0-.663-.563-1.242-1.242-1.242h-6.449c-.688 0-1.234.579-1.234 1.242v13.71c0 2.723 2.236 4.959 4.959 4.959H88.73c2.724 0 4.959-2.236 4.959-4.959V64.025a4.969 4.969 0 0 0-4.96-4.96m4.083 31.295a4.08 4.08 0 0 1-4.082 4.089H63.172a4.087 4.087 0 0 1-4.089-4.089V76.65c0-.191.165-.356.364-.356h6.449c.19 0 .365.165.365.356v8.593c.033 1.755 1.473 3.171 3.212 3.171H83.58a3.212 3.212 0 0 0 3.212-3.221V70.216a3.193 3.193 0 0 0-3.097-3.212h-8.27l-.43-.058.057-6.648c0-.207.166-.364.373-.364h13.304a4.081 4.081 0 0 1 4.082 4.091V90.36h.001z"/></defs><clipPath transform="translate(414.17 -99.138) scale(1.78998)" id="m"><use height="100%" width="100%" xlink:href="#k"/></clipPath><path transform="translate(414.17 -99.138) scale(1.78998)" fill="url(#l)" clip-path="url(#m)" d="M58.213 59.065h35.458v36.248H58.213z"/><defs><path id="n" d="M88.729 59.934H75.425a.364.364 0 0 0-.373.364l-.057 6.648.43.058h8.27a3.193 3.193 0 0 1 3.097 3.212v14.977a3.213 3.213 0 0 1-3.212 3.221H69.474c-1.739 0-3.179-1.416-3.212-3.171V76.65a.372.372 0 0 0-.365-.356h-6.449a.365.365 0 0 0-.364.356v13.71a4.087 4.087 0 0 0 4.089 4.089H88.73a4.08 4.08 0 0 0 4.082-4.089V64.025a4.082 4.082 0 0 0-4.083-4.091"/></defs><clipPath transform="translate(414.17 -99.138) scale(1.78998)" id="p"><use height="100%" width="100%" xlink:href="#n"/></clipPath><path transform="translate(414.17 -99.138) scale(1.78998)" fill="url(#o)" clip-path="url(#p)" d="M59.094 59.934h33.714v34.515H59.094z"/><path fill="url(#q)" clip-path="url(#p)" d="M610.733 33.735l-55.44 65.928-65.796-55.33 55.438-65.929z"/><defs><path id="r" d="M59.314 67.186h6.466c.199 0 .365-.182.365-.381v-6.466a.375.375 0 0 0-.365-.372h-6.466a.382.382 0 0 0-.372.372v6.466a.39.39 0 0 0 .372.381"/></defs><clipPath transform="translate(414.17 -99.138) scale(1.78998)" id="t"><use height="100%" width="100%" xlink:href="#r"/></clipPath><path transform="translate(414.17 -99.138) scale(1.78998)" fill="url(#s)" clip-path="url(#t)" d="M58.943 59.967h7.174v7.219h-7.174z"/><path fill="url(#u)" clip-path="url(#t)" d="M538.935 13.556l-11.707 13.92-13.917-11.704 11.705-13.92z"/><path fill="#fff" d="M10.474 25.4v15.204h6.884q3.82 0 5.907-1.979 2.087-1.978 2.087-5.636 0-3.632-2.087-5.61Q21.18 25.4 17.358 25.4h-6.884zM5 20.903h12.358q6.802 0 10.27 3.09 3.496 3.062 3.496 8.997 0 5.989-3.496 9.05-3.468 3.063-10.27 3.063h-6.884v16.26H5v-40.46zm57.59 21.221v18.32h-4.986V42.287q0-4.31-1.68-6.45-1.68-2.141-5.041-2.141-4.038 0-6.369 2.574-2.33 2.575-2.33 7.02v17.154H37.17V18.276h5.014v16.531q1.788-2.737 4.2-4.092 2.44-1.355 5.61-1.355 5.23 0 7.913 3.252 2.683 3.225 2.683 9.512zM77.414 55.89v16.098H72.4V30.092h5.014v4.607q1.571-2.71 3.956-4.011 2.412-1.328 5.745-1.328 5.529 0 8.97 4.39 3.47 4.39 3.47 11.545 0 7.154-3.47 11.544-3.441 4.39-8.97 4.39-3.333 0-5.745-1.3-2.385-1.328-3.956-4.038zm16.964-10.595q0-5.502-2.276-8.618-2.25-3.144-6.206-3.144-3.957 0-6.233 3.144-2.25 3.116-2.25 8.618 0 5.501 2.25 8.645 2.276 3.116 6.233 3.116t6.206-3.116q2.276-3.144 2.276-8.645zm41.462-24.038v8.564q-3.332-1.49-6.503-2.25-3.17-.758-5.99-.758-3.739 0-5.527 1.03-1.79 1.03-1.79 3.197 0 1.626 1.193 2.548 1.22.894 4.39 1.544l4.445.895q6.748 1.355 9.593 4.119 2.846 2.764 2.846 7.859 0 6.693-3.984 9.972-3.957 3.252-12.114 3.252-3.848 0-7.723-.731-3.875-.732-7.75-2.168v-8.808q3.875 2.06 7.479 3.117 3.631 1.03 6.992 1.03 3.414 0 5.23-1.139 1.816-1.138 1.816-3.252 0-1.897-1.247-2.926-1.22-1.03-4.905-1.843l-4.038-.894q-6.07-1.301-8.889-4.147-2.79-2.845-2.79-7.669 0-6.043 3.901-9.295 3.903-3.252 11.22-3.252 3.333 0 6.856.515 3.523.487 7.29 1.49zm21.112 34.796v15.935h-9.702V30.092h9.702v4.444q2.005-2.656 4.444-3.902 2.44-1.274 5.61-1.274 5.61 0 9.214 4.472 3.604 4.444 3.604 11.463 0 7.019-3.604 11.49-3.605 4.444-9.214 4.444-3.17 0-5.61-1.246-2.439-1.274-4.444-3.93zm6.45-19.647q-3.117 0-4.797 2.303-1.653 2.277-1.653 6.586t1.653 6.612q1.68 2.276 4.796 2.276 3.117 0 4.743-2.276 1.653-2.276 1.653-6.612t-1.653-6.613q-1.626-2.276-4.743-2.276zm46.637 2.41q-1.274-.596-2.547-.867-1.247-.298-2.52-.298-3.74 0-5.773 2.412-2.005 2.385-2.005 6.856v13.984h-9.702V30.55h9.702v4.986q1.87-2.98 4.281-4.336 2.44-1.382 5.827-1.382.488 0 1.057.054.569.028 1.653.163l.027 8.78zm35.175 6.83v2.764h-22.682q.352 3.414 2.466 5.122 2.114 1.707 5.908 1.707 3.062 0 6.26-.894 3.225-.922 6.612-2.765v7.48q-3.441 1.3-6.883 1.951-3.442.678-6.884.678-8.238 0-12.818-4.174-4.553-4.2-4.553-11.761 0-7.425 4.472-11.68 4.499-4.255 12.357-4.255 7.155 0 11.437 4.31 4.309 4.308 4.309 11.517zm-9.972-3.225q0-2.764-1.626-4.445-1.6-1.707-4.2-1.707-2.82 0-4.58 1.599-1.762 1.572-2.196 4.553h12.602zm30.894 4.823q-3.036 0-4.58 1.03-1.518 1.03-1.518 3.035 0 1.843 1.22 2.9 1.246 1.03 3.441 1.03 2.737 0 4.607-1.951 1.87-1.979 1.87-4.932v-1.112h-5.04zm14.823-3.658v17.317h-9.783v-4.499q-1.951 2.764-4.39 4.038-2.439 1.247-5.935 1.247-4.715 0-7.67-2.737-2.926-2.765-2.926-7.155 0-5.338 3.659-7.832 3.685-2.493 11.544-2.493h5.718v-.759q0-2.303-1.816-3.36-1.815-1.084-5.663-1.084-3.117 0-5.8.623-2.683.624-4.986 1.87v-7.398q3.116-.759 6.26-1.138 3.144-.407 6.287-.407 8.211 0 11.843 3.252 3.658 3.225 3.658 10.515zm30.188-8.131v-16.26h9.756v42.167h-9.756v-4.39q-2.005 2.683-4.417 3.93-2.412 1.246-5.583 1.246-5.61 0-9.214-4.444-3.604-4.472-3.604-11.49 0-7.02 3.604-11.464 3.604-4.471 9.214-4.471 3.144 0 5.556 1.273 2.439 1.247 4.444 3.903zm-6.396 19.647q3.117 0 4.743-2.276 1.653-2.277 1.653-6.613t-1.653-6.612q-1.626-2.276-4.743-2.276-3.089 0-4.742 2.276-1.626 2.276-1.626 6.612t1.626 6.613q1.653 2.276 4.742 2.276zm49.241-23.143v7.37q-3.117-1.3-6.016-1.95-2.9-.65-5.474-.65-2.765 0-4.12.704-1.328.677-1.328 2.114 0 1.165 1.003 1.788 1.03.624 3.659.922l1.707.244q7.452.948 10.027 3.116 2.574 2.168 2.574 6.802 0 4.851-3.577 7.29t-10.677 2.439q-3.008 0-6.233-.488-3.198-.46-6.585-1.409V52.88q2.9 1.409 5.934 2.114 3.063.704 6.206.704 2.846 0 4.282-.786t1.436-2.33q0-1.301-1.002-1.924-.976-.65-3.93-1.003l-1.707-.217q-6.477-.813-9.079-3.008-2.601-2.195-2.601-6.667 0-4.823 3.306-7.154 3.306-2.33 10.135-2.33 2.683 0 5.637.406 2.954.407 6.423 1.274zm39.864 10.921v18.482H384.1V47.27q0-3.984-.19-5.474-.163-1.49-.596-2.195-.57-.949-1.545-1.463-.975-.542-2.222-.542-3.035 0-4.77 2.357-1.734 2.33-1.734 6.477v14.932h-9.702V19.195h9.702v16.26q2.195-2.656 4.661-3.903 2.466-1.273 5.447-1.273 5.258 0 7.968 3.224 2.737 3.225 2.737 9.377zm39.349 3.225v2.764h-22.683q.352 3.415 2.466 5.122 2.114 1.707 5.908 1.707 3.062 0 6.26-.894 3.225-.921 6.612-2.764v7.48q-3.441 1.3-6.883 1.95-3.442.678-6.883.678-8.239 0-12.819-4.173-4.552-4.2-4.552-11.762 0-7.425 4.471-11.68 4.499-4.254 12.358-4.254 7.154 0 11.436 4.308 4.309 4.31 4.309 11.518zm-9.973-3.225q0-2.764-1.626-4.444-1.599-1.708-4.2-1.708-2.819 0-4.58 1.6-1.762 1.571-2.195 4.552h12.601zm47.588 3.225v2.764h-22.683q.352 3.415 2.466 5.122 2.114 1.707 5.908 1.707 3.062 0 6.26-.894 3.225-.921 6.612-2.764v7.48q-3.442 1.3-6.883 1.95-3.442.678-6.884.678-8.238 0-12.818-4.173-4.553-4.2-4.553-11.762 0-7.425 4.472-11.68 4.498-4.254 12.357-4.254 7.155 0 11.436 4.308 4.31 4.31 4.31 11.518zm-9.973-3.225q0-2.764-1.626-4.444-1.6-1.708-4.2-1.708-2.82 0-4.58 1.6-1.762 1.571-2.196 4.552h12.602zm27.885-20.488v8.618h10v6.938h-10V50.82q0 2.114.84 2.873.84.732 3.334.732h4.986v6.937h-8.32q-5.745 0-8.157-2.385-2.384-2.412-2.384-8.157V37.948h-4.824V31.01h4.824v-8.618h9.701z"/></svg>