<svg xmlns="http://www.w3.org/2000/svg" viewBox="0 0 585.918 585.918" width="512" height="512"><g fill="#009547"><path d="M271.054 252.982c-4.829.095-8.082.676-9.804 1.25v35.428c2.021.529 4.507.704 7.932.704 12.698-.012 20.609-7.423 20.609-19.862-.001-11.194-6.804-17.738-18.737-17.52zm-196.61 3.008c-4.659.087-7.798.617-9.459 1.14v32.322c1.95.483 4.349.642 7.653.642 12.252-.011 19.884-6.772 19.884-18.121 0-10.212-6.563-16.182-18.078-15.983z"/><path d="M537.12 48.969H359.73c-.782 0-1.563.077-2.33.113V0L11.171 46.206v492.311l346.23 47.401V535.33c.767.047 1.543.109 2.33.109h177.39c20.745 0 37.627-16.883 37.627-37.627V86.597c0-20.743-16.883-37.628-37.628-37.628zM106.267 297.674c-8.052 8.063-19.85 11.601-33.483 11.496-3.002-.022-5.713-.21-7.797-.547v39.146l-22.321-.584V240.299c6.897-1.461 16.665-2.682 30.575-3.036 14.247-.367 24.53 2.331 31.476 8.121 6.674 5.494 11.223 14.725 11.223 25.701-.001 10.976-3.447 20.289-9.673 26.589zm108.4 52.291l-24.012-.648V302.57l-38.381-.095v45.819l-22.639-.606V239.516l22.639-.716v42.073l38.381-.349v-42.93l24.012-.753v113.124zm89.368-51.293c-8.345 8.838-20.573 12.716-34.703 12.601-3.111-.024-5.921-.23-8.081-.6v42.908l-23.134-.64V235.784c7.148-1.601 17.272-2.94 31.689-3.328 14.766-.402 25.424 2.555 32.623 8.901 6.917 6.022 11.632 16.14 11.632 28.171-.001 12.03-3.573 22.238-10.026 29.144zm249.21 199.149c0 8.893-7.233 16.127-16.125 16.127H359.73c-.792 0-1.563-.127-2.33-.243V330.148l33.16-124.759h-21.75l-11.411 42.925V70.711c.767-.113 1.532-.236 2.33-.236h177.39c8.892 0 16.125 7.236 16.125 16.126v411.22z"/><path d="M408.325 254.732l79.889 38.035v.477l-79.889 38.028v25.36l103.366-52.636v-21.99l-103.366-52.632z"/></g></svg>