<svg xmlns="http://www.w3.org/2000/svg" width="512" height="512" viewBox="0 0 332.441 332.44"><path d="M260.777 217.262l-49.705 49.705a1.703 1.703 0 0 0 0 2.398l14.825 14.824a1.705 1.705 0 0 0 2.396 0l7.603-7.604a1.701 1.701 0 0 1 2.395.002l40.512 40.508c20.321 20.324 21.556 19.092 36.378 4.271 14.821-14.822 16.057-16.057-4.269-36.379l-40.51-40.512a1.697 1.697 0 0 1-.003-2.393L278 234.48a1.699 1.699 0 0 0 0-2.396l-14.824-14.828a1.71 1.71 0 0 0-2.399.006zm37.885 73.357l-14.239 14.242a4.715 4.715 0 0 1-6.666-6.668l14.24-14.24a4.713 4.713 0 1 1 6.665 6.666zm-20.493-20.492l-14.24 14.242a4.714 4.714 0 0 1-6.666-6.666l14.242-14.24a4.71 4.71 0 0 1 6.664-.002 4.71 4.71 0 0 1 0 6.666zm-72.429-80.529c-10.196 8.846-19.131 16.229-28.599 23.863-.467.377-1.216 1.322-.272 2.021 16.28 12.842 28.107 21.561 33.939 25.824 2.174 1.594 3.363 2.434 4.822.977 4.895-4.896 14.315-14.318 19.578-19.58 1.463-1.461 1.084-2.674-.316-4.188-4.26-4.602-14.407-15.562-26.838-28.982-.33-.359-1.004-1.062-2.314.065zm-79.975-18.897a54124.383 54124.383 0 0 1 31.522-33.999c.535-.711.053-1.865-.364-2.314A11314.128 11314.128 0 0 0 136 111.908C110.686 84.803 45.448 2.472 45.448 2.472s-4.549-6.025-6.226.736c-2.779 11.213-7.844 37.059 4.221 72.381 9.189 26.9 43.862 63.051 79.581 94.941.529.474 1.714 1.046 2.741.171zM293.214 3.209c-1.677-6.762-6.227-.736-6.227-.736s-65.236 82.33-90.552 109.436c-22.774 24.381-86.349 93.055-98.892 106.606-1.401 1.516-1.778 2.729-.317 4.188 5.262 5.262 14.685 14.684 19.579 19.58 1.458 1.457 2.65.617 4.823-.977 22.286-16.305 148.499-110.501 167.362-165.719 12.068-35.319 7.004-61.165 4.224-72.378zM69.266 217.262L54.439 232.09a1.7 1.7 0 0 0 0 2.396l7.601 7.602a1.698 1.698 0 0 1-.002 2.394l-40.509 40.511c-20.324 20.324-19.09 21.557-4.268 36.379 14.822 14.821 16.054 16.055 36.378-4.271l40.509-40.508a1.701 1.701 0 0 1 2.395-.002l7.602 7.604a1.705 1.705 0 0 0 2.396 0l14.826-14.824c.659-.66.658-1.74 0-2.398l-49.706-49.705a1.694 1.694 0 0 0-2.395-.006zm-35.491 66.691a4.714 4.714 0 0 1 6.667 0l14.241 14.24a4.715 4.715 0 0 1-6.666 6.668l-14.241-14.242a4.715 4.715 0 0 1-.001-6.666zm20.493-20.492a4.714 4.714 0 0 1 6.667.002l14.241 14.24a4.714 4.714 0 0 1-6.666 6.666l-14.241-14.242a4.711 4.711 0 0 1-.001-6.666z" fill="#00bfff"/></svg>