<?xml version="1.0" encoding="iso-8859-1"?>
<!-- Generator: Adobe Illustrator 19.0.0, SVG Export Plug-In . SVG Version: 6.00 Build 0)  -->
<svg xmlns="http://www.w3.org/2000/svg" xmlns:xlink="http://www.w3.org/1999/xlink" version="1.1" id="Layer_1" x="0px" y="0px" viewBox="0 0 512 512" style="enable-background:new 0 0 512 512;" xml:space="preserve" width="512px" height="512px">
<g>
	<g>
		<g>
			<path d="M437.333,362.666c-6.399,0-10.667,4.267-10.667,10.667v64c0,17.067-14.934,32-32,32H53.334c-17.067,0-32-14.934-32-32     V128h405.334v74.667c0,6.399,4.267,10.667,10.667,10.667c6.399,0,10.667-4.267,10.667-10.667v-128     c0-29.866-23.467-53.334-53.334-53.334H53.334C23.467,21.333,0,44.8,0,74.666v362.667c0,29.866,23.467,53.334,53.334,53.334     h341.334c29.866,0,53.334-23.467,53.334-53.334v-64C448,366.934,443.734,362.666,437.333,362.666z M138.667,64     c6.399,0,10.667,4.267,10.667,10.667c0,6.4-4.267,10.667-10.667,10.667c-6.4,0-10.667-4.269-10.667-10.668S132.268,64,138.667,64     z M96,64c6.399,0,10.667,4.267,10.667,10.667c0,6.4-4.268,10.666-10.667,10.666s-10.667-4.267-10.667-10.667S89.6,64,96,64z      M53.334,64C59.733,64,64,68.267,64,74.666s-4.267,10.667-10.667,10.667s-10.667-4.267-10.667-10.667S46.933,64,53.334,64z" fill="#009547"/>
			<path d="M501.333,320h-32v-74.667c0-6.399-4.267-10.667-10.667-10.667c-6.399,0-10.667,4.267-10.667,10.667v85.333     c0,6.399,4.267,10.667,10.667,10.667h42.667c6.399,0,10.667-4.267,10.667-10.667S507.734,320,501.333,320z" fill="#009547"/>
			<path d="M154.5,381.625c4.438,1.375,9.89,2.823,14.034-4.023l42.667-85.333c2.133-4.267,0.629-11.405-4.267-14.934     c-3.87-2.789-11.809-1.022-14.934,4.267l-12.8,23.467l-12.801-23.467c-2.133-4.267-8.701-6.848-14.934-4.267     c-4.408,1.825-7.028,8.665-4.267,14.934l19.2,38.4l-19.2,38.4C144.844,373.593,148.056,379.628,154.5,381.625z" fill="#009547"/>
			<path d="M117.334,341.333c6.399,0,10.667-4.267,10.667-10.667v-85.333c0-4.267-2.133-8.533-6.399-10.667     c-4.267-2.133-8.914-0.355-12.8,4.267l-23.467,32l-23.467-32c-3.055-4.372-8.648-5.247-12.801-4.267     c-4.643,1.096-6.399,6.399-6.399,10.667v85.333c0,6.399,4.267,10.667,10.667,10.667c6.4,0,10.665-4.267,10.665-10.666v-53.334     L76.801,294.4c4.267,6.399,12.801,6.399,17.067,0l12.8-17.067v53.334C106.667,337.067,110.933,341.333,117.334,341.333z" fill="#009547"/>
			<path d="M426.667,266.667c0-17.067-14.934-32-32-32h-21.333c-17.067,0-32,14.934-32,32v42.667c0,17.067,14.934,32,32,32     c5.333,0,16,0,21.333,0c4.267,0,8.533-2.133,12.801-4.267c2.133,2.133,4.767,4.267,9.033,4.267c2.133,0,5.9-2.134,8.034-4.267     c4.267-4.267,4.267-10.667,0-14.934c2.133-4.267,2.267-8.533,2.267-12.8L426.667,266.667z M388.267,302.933     c-4.267,4.267-4.267,10.667,0,14.934L390.4,320h-17.067c-6.399,0-10.667-4.267-10.667-10.667v-42.667     c0-6.399,4.267-10.667,10.667-10.667h21.333c6.399,0,10.667,4.267,10.667,10.667v38.399l-2.132-2.132     C398.934,298.666,392.534,298.666,388.267,302.933z" fill="#009547"/>
			<path d="M279.469,253.867c12.8,0,19.012,7.085,21.333,10.666c5.323,8.215,8.771,9.844,14.448,7.715c7-2.625,7.375-6,6.885-9.848     c-2.133-17.067-19.2-29.866-42.667-29.866s-42.667,14.934-42.667,32s12.85,27.199,38.449,31.465l4.217,0.535     c17.067,2.133,21.283,6.09,21.221,11.465C300.609,314.744,290.133,320,277.334,320c-12.801,0-18.959-6.876-21.333-10.667     c-3.908-6.238-6.399-10.667-10.667-10.667c-6.399,0-11.834,5.582-10.666,10.667c3.582,16.291,19.2,29.866,42.667,29.866     c23.467,0,42.667-14.934,42.667-32c0-17.067-12.526-27.435-38.127-31.701l-2.406-0.298c-19.2-2.133-21.344-7.952-21.333-10.667     C258.153,260.266,266.669,253.867,279.469,253.867z" fill="#009547"/>
		</g>
	</g>
</g>
<g>
</g>
<g>
</g>
<g>
</g>
<g>
</g>
<g>
</g>
<g>
</g>
<g>
</g>
<g>
</g>
<g>
</g>
<g>
</g>
<g>
</g>
<g>
</g>
<g>
</g>
<g>
</g>
<g>
</g>
</svg>
