<?xml version="1.0" encoding="windows-1252"?>
<!-- Generator: Adobe Illustrator 18.0.0, SVG Export Plug-In . SVG Version: 6.00 Build 0)  -->
<!DOCTYPE svg PUBLIC "-//W3C//DTD SVG 1.1//EN" "http://www.w3.org/Graphics/SVG/1.1/DTD/svg11.dtd">
<svg xmlns="http://www.w3.org/2000/svg" xmlns:xlink="http://www.w3.org/1999/xlink" version="1.1" id="Capa_1" x="0px" y="0px" viewBox="0 0 585.918 585.918" style="enable-background:new 0 0 585.918 585.918;" xml:space="preserve" width="512px" height="512px">
<g>
	<g>
		<path d="M271.054,252.982c-4.829,0.095-8.082,0.676-9.804,1.25v35.428c2.021,0.529,4.507,0.704,7.932,0.704    c12.698-0.012,20.609-7.423,20.609-19.862C289.79,259.308,282.987,252.764,271.054,252.982z" fill="#009547"/>
		<path d="M74.444,255.99c-4.659,0.087-7.798,0.617-9.459,1.14v32.322c1.95,0.483,4.349,0.642,7.653,0.642    c12.252-0.011,19.884-6.772,19.884-18.121C92.522,261.761,85.959,255.791,74.444,255.99z" fill="#009547"/>
	</g>
	<path d="M537.12,48.969h-177.39c-0.782,0-1.563,0.077-2.33,0.113V0L11.171,46.206v492.311l346.23,47.401V535.33   c0.767,0.047,1.543,0.109,2.33,0.109h177.39c20.745,0,37.627-16.883,37.627-37.627V86.597   C574.748,65.854,557.865,48.969,537.12,48.969z M106.267,297.674c-8.052,8.063-19.85,11.601-33.483,11.496   c-3.002-0.022-5.713-0.21-7.797-0.547v39.146l-22.321-0.584V240.299c6.897-1.461,16.665-2.682,30.575-3.036   c14.247-0.367,24.53,2.331,31.476,8.121c6.674,5.494,11.223,14.725,11.223,25.701C115.939,282.061,112.493,291.374,106.267,297.674   z M214.667,349.965l-24.012-0.648V302.57l-38.381-0.095v45.819l-22.639-0.606V239.516l22.639-0.716v42.073l38.381-0.349v-42.93   l24.012-0.753V349.965z M304.035,298.672c-8.345,8.838-20.573,12.716-34.703,12.601c-3.111-0.024-5.921-0.23-8.081-0.6v42.908   l-23.134-0.64V235.784c7.148-1.601,17.272-2.94,31.689-3.328c14.766-0.402,25.424,2.555,32.623,8.901   c6.917,6.022,11.632,16.14,11.632,28.171C314.06,281.558,310.488,291.766,304.035,298.672z M553.245,497.821   c0,8.893-7.233,16.127-16.125,16.127h-177.39c-0.792,0-1.563-0.127-2.33-0.243V330.148l33.16-124.759h-21.75l-11.411,42.925V70.711   c0.767-0.113,1.532-0.236,2.33-0.236h177.39c8.892,0,16.125,7.236,16.125,16.126V497.821z" fill="#009547"/>
	<polygon points="408.325,254.732 488.214,292.767 488.214,293.244 408.325,331.272 408.325,356.632 511.691,303.996    511.691,282.006 408.325,229.374  " fill="#009547"/>
</g>
<g>
</g>
<g>
</g>
<g>
</g>
<g>
</g>
<g>
</g>
<g>
</g>
<g>
</g>
<g>
</g>
<g>
</g>
<g>
</g>
<g>
</g>
<g>
</g>
<g>
</g>
<g>
</g>
<g>
</g>
</svg>
